<?xml version="1.0" encoding="utf-8"?>
<!-- Generator: Adobe Illustrator 15.0.2, SVG Export Plug-In  -->
<!DOCTYPE svg PUBLIC "-//W3C//DTD SVG 1.1//EN" "http://www.w3.org/Graphics/SVG/1.1/DTD/svg11.dtd" [
	<!ENTITY ns_flows "http://ns.adobe.com/Flows/1.0/">
]>
<svg version="1.1"
	 xmlns="http://www.w3.org/2000/svg" xmlns:xlink="http://www.w3.org/1999/xlink" xmlns:a="http://ns.adobe.com/AdobeSVGViewerExtensions/3.0/"
	 x="0px" y="0px" width="256px" height="256px" viewBox="-0.567 -0.567 256 256"
	 overflow="visible" enable-background="new -0.567 -0.567 256 256" xml:space="preserve">
<defs>
</defs>
<path fill="#FFFFFF" d="M0,127.559C0,57.11,57.11,0,127.561,0c70.447,0,127.557,57.11,127.557,127.559
	c0,70.452-57.11,127.56-127.557,127.56C57.11,255.118,0,198.011,0,127.559z"/>
<g>
	<g>
		<path d="M127.561,8.504C61.805,8.504,8.503,61.806,8.503,127.56c0,65.752,53.302,119.052,119.058,119.055
			c65.75,0,119.052-53.303,119.052-119.055C246.613,61.806,193.311,8.504,127.561,8.504z M127.561,229.606
			c-56.357,0-102.048-45.688-102.048-102.045c0-56.361,45.691-102.048,102.048-102.048c56.362,0,102.046,45.688,102.046,102.048
			C229.606,183.919,183.923,229.606,127.561,229.606z"/>
	</g>
</g>
<g>
	<g>
		<path d="M126.265,55.796c-14.248,0-25.147,1.39-33.31,3.194V43.104h-10.31v18.797c-7.486,2.666-10.512,5.196-10.512,5.196
			s4.312-0.361,10.512,0.131v97.745c-2.418,4.448-3.968,9.744-3.968,16.141c0,17.646,8.528,33.511,8.528,33.511
			s-2.579-9.919-2.532-16.853c0.152-22.449,9.336-34.371,48.93-40.852c16.963-2.775,69.205-6.346,68.804-45.406
			C202.168,87.927,187.54,55.796,126.265,55.796z M105.247,144.826c-3.504,2.151-7.999,4.748-12.292,8.21V68.734
			c15.4,3.365,33.708,12.898,33.707,39.21C126.663,118.607,125.275,132.532,105.247,144.826z"/>
	</g>
</g>
</svg>
